<!DOCTYPE svg PUBLIC "-//W3C//DTD SVG 1.1//EN" "http://www.w3.org/Graphics/SVG/1.1/DTD/svg11.dtd">
<!-- Uploaded to: SVG Repo, www.svgrepo.com, Transformed by: SVG Repo Mixer Tools -->
<svg fill="#ffffff" width="64px" height="64px" viewBox="0 0 24 24" xmlns="http://www.w3.org/2000/svg" stroke="#ffffff">
<g id="SVGRepo_bgCarrier" stroke-width="0"/>
<g id="SVGRepo_tracerCarrier" stroke-linecap="round" stroke-linejoin="round"/>
<g id="SVGRepo_iconCarrier">
<path d="M7.707,8.707,5.414,11H17a1,1,0,0,1,0,2H5.414l2.293,2.293a1,1,0,1,1-1.414,1.414l-4-4a1,1,0,0,1,0-1.414l4-4A1,1,0,1,1,7.707,8.707ZM21,1H13a1,1,0,0,0,0,2h7V21H13a1,1,0,0,0,0,2h8a1,1,0,0,0,1-1V2A1,1,0,0,0,21,1Z"/>
</g>
</svg>